<?xml version="1.0" encoding="utf-8"?>
<svg xmlns="http://www.w3.org/2000/svg" viewBox="0 0 500 500">
  <g id="preview" transform="matrix(11.758197, 0, 0, 11.860065, -4642.101562, -2469.120361)" style="">
    <path d="M 394.984 208.508 L 396.984 208.508 L 396.984 210.508 L 394.984 210.508 L 394.984 208.508 Z M 396.984 208.508 L 398.984 208.508 L 398.984 210.508 L 396.984 210.508 L 396.984 208.508 Z M 398.984 208.508 L 400.984 208.508 L 400.984 210.508 L 398.984 210.508 L 398.984 208.508 Z M 400.984 208.508 L 402.984 208.508 L 402.984 210.508 L 400.984 210.508 L 400.984 208.508 Z M 402.984 208.508 L 404.984 208.508 L 404.984 210.508 L 402.984 210.508 L 402.984 208.508 Z M 404.984 208.508 L 406.984 208.508 L 406.984 210.508 L 404.984 210.508 L 404.984 208.508 Z M 406.984 208.508 L 408.984 208.508 L 408.984 210.508 L 406.984 210.508 L 406.984 208.508 Z M 414.984 208.508 L 416.984 208.508 L 416.984 210.508 L 414.984 210.508 L 414.984 208.508 Z M 416.984 208.508 L 418.984 208.508 L 418.984 210.508 L 416.984 210.508 L 416.984 208.508 Z M 418.984 208.508 L 420.984 208.508 L 420.984 210.508 L 418.984 210.508 L 418.984 208.508 Z M 422.984 208.508 L 424.984 208.508 L 424.984 210.508 L 422.984 210.508 L 422.984 208.508 Z M 424.984 208.508 L 426.984 208.508 L 426.984 210.508 L 424.984 210.508 L 424.984 208.508 Z M 426.984 208.508 L 428.984 208.508 L 428.984 210.508 L 426.984 210.508 L 426.984 208.508 Z M 428.984 208.508 L 430.984 208.508 L 430.984 210.508 L 428.984 210.508 L 428.984 208.508 Z M 430.984 208.508 L 432.984 208.508 L 432.984 210.508 L 430.984 210.508 L 430.984 208.508 Z M 432.984 208.508 L 434.984 208.508 L 434.984 210.508 L 432.984 210.508 L 432.984 208.508 Z M 434.984 208.508 L 436.984 208.508 L 436.984 210.508 L 434.984 210.508 L 434.984 208.508 Z M 394.984 210.508 L 396.984 210.508 L 396.984 212.508 L 394.984 212.508 L 394.984 210.508 Z M 406.984 210.508 L 408.984 210.508 L 408.984 212.508 L 406.984 212.508 L 406.984 210.508 Z M 422.984 210.508 L 424.984 210.508 L 424.984 212.508 L 422.984 212.508 L 422.984 210.508 Z M 434.984 210.508 L 436.984 210.508 L 436.984 212.508 L 434.984 212.508 L 434.984 210.508 Z M 394.984 212.508 L 396.984 212.508 L 396.984 214.508 L 394.984 214.508 L 394.984 212.508 Z M 398.984 212.508 L 400.984 212.508 L 400.984 214.508 L 398.984 214.508 L 398.984 212.508 Z M 400.984 212.508 L 402.984 212.508 L 402.984 214.508 L 400.984 214.508 L 400.984 212.508 Z M 402.984 212.508 L 404.984 212.508 L 404.984 214.508 L 402.984 214.508 L 402.984 212.508 Z M 406.984 212.508 L 408.984 212.508 L 408.984 214.508 L 406.984 214.508 L 406.984 212.508 Z M 410.984 212.508 L 412.984 212.508 L 412.984 214.508 L 410.984 214.508 L 410.984 212.508 Z M 412.984 212.508 L 414.984 212.508 L 414.984 214.508 L 412.984 214.508 L 412.984 212.508 Z M 416.984 212.508 L 418.984 212.508 L 418.984 214.508 L 416.984 214.508 L 416.984 212.508 Z M 418.984 212.508 L 420.984 212.508 L 420.984 214.508 L 418.984 214.508 L 418.984 212.508 Z M 422.984 212.508 L 424.984 212.508 L 424.984 214.508 L 422.984 214.508 L 422.984 212.508 Z M 426.984 212.508 L 428.984 212.508 L 428.984 214.508 L 426.984 214.508 L 426.984 212.508 Z M 428.984 212.508 L 430.984 212.508 L 430.984 214.508 L 428.984 214.508 L 428.984 212.508 Z M 430.984 212.508 L 432.984 212.508 L 432.984 214.508 L 430.984 214.508 L 430.984 212.508 Z M 434.984 212.508 L 436.984 212.508 L 436.984 214.508 L 434.984 214.508 L 434.984 212.508 Z M 394.984 214.508 L 396.984 214.508 L 396.984 216.508 L 394.984 216.508 L 394.984 214.508 Z M 398.984 214.508 L 400.984 214.508 L 400.984 216.508 L 398.984 216.508 L 398.984 214.508 Z M 400.984 214.508 L 402.984 214.508 L 402.984 216.508 L 400.984 216.508 L 400.984 214.508 Z M 402.984 214.508 L 404.984 214.508 L 404.984 216.508 L 402.984 216.508 L 402.984 214.508 Z M 406.984 214.508 L 408.984 214.508 L 408.984 216.508 L 406.984 216.508 L 406.984 214.508 Z M 410.984 214.508 L 412.984 214.508 L 412.984 216.508 L 410.984 216.508 L 410.984 214.508 Z M 412.984 214.508 L 414.984 214.508 L 414.984 216.508 L 412.984 216.508 L 412.984 214.508 Z M 414.984 214.508 L 416.984 214.508 L 416.984 216.508 L 414.984 216.508 L 414.984 214.508 Z M 422.984 214.508 L 424.984 214.508 L 424.984 216.508 L 422.984 216.508 L 422.984 214.508 Z M 426.984 214.508 L 428.984 214.508 L 428.984 216.508 L 426.984 216.508 L 426.984 214.508 Z M 428.984 214.508 L 430.984 214.508 L 430.984 216.508 L 428.984 216.508 L 428.984 214.508 Z M 430.984 214.508 L 432.984 214.508 L 432.984 216.508 L 430.984 216.508 L 430.984 214.508 Z M 434.984 214.508 L 436.984 214.508 L 436.984 216.508 L 434.984 216.508 L 434.984 214.508 Z M 394.984 216.508 L 396.984 216.508 L 396.984 218.508 L 394.984 218.508 L 394.984 216.508 Z M 398.984 216.508 L 400.984 216.508 L 400.984 218.508 L 398.984 218.508 L 398.984 216.508 Z M 400.984 216.508 L 402.984 216.508 L 402.984 218.508 L 400.984 218.508 L 400.984 216.508 Z M 402.984 216.508 L 404.984 216.508 L 404.984 218.508 L 402.984 218.508 L 402.984 216.508 Z M 406.984 216.508 L 408.984 216.508 L 408.984 218.508 L 406.984 218.508 L 406.984 216.508 Z M 410.984 216.508 L 412.984 216.508 L 412.984 218.508 L 410.984 218.508 L 410.984 216.508 Z M 412.984 216.508 L 414.984 216.508 L 414.984 218.508 L 412.984 218.508 L 412.984 216.508 Z M 416.984 216.508 L 418.984 216.508 L 418.984 218.508 L 416.984 218.508 L 416.984 216.508 Z M 418.984 216.508 L 420.984 216.508 L 420.984 218.508 L 418.984 218.508 L 418.984 216.508 Z M 422.984 216.508 L 424.984 216.508 L 424.984 218.508 L 422.984 218.508 L 422.984 216.508 Z M 426.984 216.508 L 428.984 216.508 L 428.984 218.508 L 426.984 218.508 L 426.984 216.508 Z M 428.984 216.508 L 430.984 216.508 L 430.984 218.508 L 428.984 218.508 L 428.984 216.508 Z M 430.984 216.508 L 432.984 216.508 L 432.984 218.508 L 430.984 218.508 L 430.984 216.508 Z M 434.984 216.508 L 436.984 216.508 L 436.984 218.508 L 434.984 218.508 L 434.984 216.508 Z M 394.984 218.508 L 396.984 218.508 L 396.984 220.508 L 394.984 220.508 L 394.984 218.508 Z M 406.984 218.508 L 408.984 218.508 L 408.984 220.508 L 406.984 220.508 L 406.984 218.508 Z M 410.984 218.508 L 412.984 218.508 L 412.984 220.508 L 410.984 220.508 L 410.984 218.508 Z M 418.984 218.508 L 420.984 218.508 L 420.984 220.508 L 418.984 220.508 L 418.984 218.508 Z M 422.984 218.508 L 424.984 218.508 L 424.984 220.508 L 422.984 220.508 L 422.984 218.508 Z M 434.984 218.508 L 436.984 218.508 L 436.984 220.508 L 434.984 220.508 L 434.984 218.508 Z M 394.984 220.508 L 396.984 220.508 L 396.984 222.508 L 394.984 222.508 L 394.984 220.508 Z M 396.984 220.508 L 398.984 220.508 L 398.984 222.508 L 396.984 222.508 L 396.984 220.508 Z M 398.984 220.508 L 400.984 220.508 L 400.984 222.508 L 398.984 222.508 L 398.984 220.508 Z M 400.984 220.508 L 402.984 220.508 L 402.984 222.508 L 400.984 222.508 L 400.984 220.508 Z M 402.984 220.508 L 404.984 220.508 L 404.984 222.508 L 402.984 222.508 L 402.984 220.508 Z M 404.984 220.508 L 406.984 220.508 L 406.984 222.508 L 404.984 222.508 L 404.984 220.508 Z M 406.984 220.508 L 408.984 220.508 L 408.984 222.508 L 406.984 222.508 L 406.984 220.508 Z M 410.984 220.508 L 412.984 220.508 L 412.984 222.508 L 410.984 222.508 L 410.984 220.508 Z M 414.984 220.508 L 416.984 220.508 L 416.984 222.508 L 414.984 222.508 L 414.984 220.508 Z M 418.984 220.508 L 420.984 220.508 L 420.984 222.508 L 418.984 222.508 L 418.984 220.508 Z M 422.984 220.508 L 424.984 220.508 L 424.984 222.508 L 422.984 222.508 L 422.984 220.508 Z M 424.984 220.508 L 426.984 220.508 L 426.984 222.508 L 424.984 222.508 L 424.984 220.508 Z M 426.984 220.508 L 428.984 220.508 L 428.984 222.508 L 426.984 222.508 L 426.984 220.508 Z M 428.984 220.508 L 430.984 220.508 L 430.984 222.508 L 428.984 222.508 L 428.984 220.508 Z M 430.984 220.508 L 432.984 220.508 L 432.984 222.508 L 430.984 222.508 L 430.984 220.508 Z M 432.984 220.508 L 434.984 220.508 L 434.984 222.508 L 432.984 222.508 L 432.984 220.508 Z M 434.984 220.508 L 436.984 220.508 L 436.984 222.508 L 434.984 222.508 L 434.984 220.508 Z M 410.984 222.508 L 412.984 222.508 L 412.984 224.508 L 410.984 224.508 L 410.984 222.508 Z M 412.984 222.508 L 414.984 222.508 L 414.984 224.508 L 412.984 224.508 L 412.984 222.508 Z M 416.984 222.508 L 418.984 222.508 L 418.984 224.508 L 416.984 224.508 L 416.984 222.508 Z M 418.984 222.508 L 420.984 222.508 L 420.984 224.508 L 418.984 224.508 L 418.984 222.508 Z M 394.984 224.508 L 396.984 224.508 L 396.984 226.508 L 394.984 226.508 L 394.984 224.508 Z M 398.984 224.508 L 400.984 224.508 L 400.984 226.508 L 398.984 226.508 L 398.984 224.508 Z M 400.984 224.508 L 402.984 224.508 L 402.984 226.508 L 400.984 226.508 L 400.984 224.508 Z M 402.984 224.508 L 404.984 224.508 L 404.984 226.508 L 402.984 226.508 L 402.984 224.508 Z M 404.984 224.508 L 406.984 224.508 L 406.984 226.508 L 404.984 226.508 L 404.984 224.508 Z M 406.984 224.508 L 408.984 224.508 L 408.984 226.508 L 406.984 226.508 L 406.984 224.508 Z M 418.984 224.508 L 420.984 224.508 L 420.984 226.508 L 418.984 226.508 L 418.984 224.508 Z M 422.984 224.508 L 424.984 224.508 L 424.984 226.508 L 422.984 226.508 L 422.984 224.508 Z M 424.984 224.508 L 426.984 224.508 L 426.984 226.508 L 424.984 226.508 L 424.984 224.508 Z M 426.984 224.508 L 428.984 224.508 L 428.984 226.508 L 426.984 226.508 L 426.984 224.508 Z M 428.984 224.508 L 430.984 224.508 L 430.984 226.508 L 428.984 226.508 L 428.984 224.508 Z M 430.984 224.508 L 432.984 224.508 L 432.984 226.508 L 430.984 226.508 L 430.984 224.508 Z M 396.984 226.508 L 398.984 226.508 L 398.984 228.508 L 396.984 228.508 L 396.984 226.508 Z M 398.984 226.508 L 400.984 226.508 L 400.984 228.508 L 398.984 228.508 L 398.984 226.508 Z M 400.984 226.508 L 402.984 226.508 L 402.984 228.508 L 400.984 228.508 L 400.984 226.508 Z M 402.984 226.508 L 404.984 226.508 L 404.984 228.508 L 402.984 228.508 L 402.984 226.508 Z M 412.984 226.508 L 414.984 226.508 L 414.984 228.508 L 412.984 228.508 L 412.984 226.508 Z M 414.984 226.508 L 416.984 226.508 L 416.984 228.508 L 414.984 228.508 L 414.984 226.508 Z M 418.984 226.508 L 420.984 226.508 L 420.984 228.508 L 418.984 228.508 L 418.984 226.508 Z M 424.984 226.508 L 426.984 226.508 L 426.984 228.508 L 424.984 228.508 L 424.984 226.508 Z M 430.984 226.508 L 432.984 226.508 L 432.984 228.508 L 430.984 228.508 L 430.984 226.508 Z M 394.984 228.508 L 396.984 228.508 L 396.984 230.508 L 394.984 230.508 L 394.984 228.508 Z M 396.984 228.508 L 398.984 228.508 L 398.984 230.508 L 396.984 230.508 L 396.984 228.508 Z M 400.984 228.508 L 402.984 228.508 L 402.984 230.508 L 400.984 230.508 L 400.984 228.508 Z M 402.984 228.508 L 404.984 228.508 L 404.984 230.508 L 402.984 230.508 L 402.984 228.508 Z M 406.984 228.508 L 408.984 228.508 L 408.984 230.508 L 406.984 230.508 L 406.984 228.508 Z M 408.984 228.508 L 410.984 228.508 L 410.984 230.508 L 408.984 230.508 L 408.984 228.508 Z M 410.984 228.508 L 412.984 228.508 L 412.984 230.508 L 410.984 230.508 L 410.984 228.508 Z M 416.984 228.508 L 418.984 228.508 L 418.984 230.508 L 416.984 230.508 L 416.984 228.508 Z M 420.984 228.508 L 422.984 228.508 L 422.984 230.508 L 420.984 230.508 L 420.984 228.508 Z M 426.984 228.508 L 428.984 228.508 L 428.984 230.508 L 426.984 230.508 L 426.984 228.508 Z M 398.984 230.508 L 400.984 230.508 L 400.984 232.508 L 398.984 232.508 L 398.984 230.508 Z M 400.984 230.508 L 402.984 230.508 L 402.984 232.508 L 400.984 232.508 L 400.984 230.508 Z M 402.984 230.508 L 404.984 230.508 L 404.984 232.508 L 402.984 232.508 L 402.984 230.508 Z M 412.984 230.508 L 414.984 230.508 L 414.984 232.508 L 412.984 232.508 L 412.984 230.508 Z M 414.984 230.508 L 416.984 230.508 L 416.984 232.508 L 414.984 232.508 L 414.984 230.508 Z M 424.984 230.508 L 426.984 230.508 L 426.984 232.508 L 424.984 232.508 L 424.984 230.508 Z M 426.984 230.508 L 428.984 230.508 L 428.984 232.508 L 426.984 232.508 L 426.984 230.508 Z M 428.984 230.508 L 430.984 230.508 L 430.984 232.508 L 428.984 232.508 L 428.984 230.508 Z M 432.984 230.508 L 434.984 230.508 L 434.984 232.508 L 432.984 232.508 L 432.984 230.508 Z M 394.984 232.508 L 396.984 232.508 L 396.984 234.508 L 394.984 234.508 L 394.984 232.508 Z M 400.984 232.508 L 402.984 232.508 L 402.984 234.508 L 400.984 234.508 L 400.984 232.508 Z M 402.984 232.508 L 404.984 232.508 L 404.984 234.508 L 402.984 234.508 L 402.984 232.508 Z M 404.984 232.508 L 406.984 232.508 L 406.984 234.508 L 404.984 234.508 L 404.984 232.508 Z M 406.984 232.508 L 408.984 232.508 L 408.984 234.508 L 406.984 234.508 L 406.984 232.508 Z M 408.984 232.508 L 410.984 232.508 L 410.984 234.508 L 408.984 234.508 L 408.984 232.508 Z M 414.984 232.508 L 416.984 232.508 L 416.984 234.508 L 414.984 234.508 L 414.984 232.508 Z M 416.984 232.508 L 418.984 232.508 L 418.984 234.508 L 416.984 234.508 L 416.984 232.508 Z M 420.984 232.508 L 422.984 232.508 L 422.984 234.508 L 420.984 234.508 L 420.984 232.508 Z M 426.984 232.508 L 428.984 232.508 L 428.984 234.508 L 426.984 234.508 L 426.984 232.508 Z M 428.984 232.508 L 430.984 232.508 L 430.984 234.508 L 428.984 234.508 L 428.984 232.508 Z M 430.984 232.508 L 432.984 232.508 L 432.984 234.508 L 430.984 234.508 L 430.984 232.508 Z M 432.984 232.508 L 434.984 232.508 L 434.984 234.508 L 432.984 234.508 L 432.984 232.508 Z M 434.984 232.508 L 436.984 232.508 L 436.984 234.508 L 434.984 234.508 L 434.984 232.508 Z M 410.984 234.508 L 412.984 234.508 L 412.984 236.508 L 410.984 236.508 L 410.984 234.508 Z M 412.984 234.508 L 414.984 234.508 L 414.984 236.508 L 412.984 236.508 L 412.984 234.508 Z M 416.984 234.508 L 418.984 234.508 L 418.984 236.508 L 416.984 236.508 L 416.984 234.508 Z M 418.984 234.508 L 420.984 234.508 L 420.984 236.508 L 418.984 236.508 L 418.984 234.508 Z M 420.984 234.508 L 422.984 234.508 L 422.984 236.508 L 420.984 236.508 L 420.984 234.508 Z M 422.984 234.508 L 424.984 234.508 L 424.984 236.508 L 422.984 236.508 L 422.984 234.508 Z M 424.984 234.508 L 426.984 234.508 L 426.984 236.508 L 424.984 236.508 L 424.984 234.508 Z M 428.984 234.508 L 430.984 234.508 L 430.984 236.508 L 428.984 236.508 L 428.984 234.508 Z M 432.984 234.508 L 434.984 234.508 L 434.984 236.508 L 432.984 236.508 L 432.984 234.508 Z M 394.984 236.508 L 396.984 236.508 L 396.984 238.508 L 394.984 238.508 L 394.984 236.508 Z M 396.984 236.508 L 398.984 236.508 L 398.984 238.508 L 396.984 238.508 L 396.984 236.508 Z M 398.984 236.508 L 400.984 236.508 L 400.984 238.508 L 398.984 238.508 L 398.984 236.508 Z M 400.984 236.508 L 402.984 236.508 L 402.984 238.508 L 400.984 238.508 L 400.984 236.508 Z M 402.984 236.508 L 404.984 236.508 L 404.984 238.508 L 402.984 238.508 L 402.984 236.508 Z M 404.984 236.508 L 406.984 236.508 L 406.984 238.508 L 404.984 238.508 L 404.984 236.508 Z M 406.984 236.508 L 408.984 236.508 L 408.984 238.508 L 406.984 238.508 L 406.984 236.508 Z M 412.984 236.508 L 414.984 236.508 L 414.984 238.508 L 412.984 238.508 L 412.984 236.508 Z M 414.984 236.508 L 416.984 236.508 L 416.984 238.508 L 414.984 238.508 L 414.984 236.508 Z M 418.984 236.508 L 420.984 236.508 L 420.984 238.508 L 418.984 238.508 L 418.984 236.508 Z M 422.984 236.508 L 424.984 236.508 L 424.984 238.508 L 422.984 238.508 L 422.984 236.508 Z M 424.984 236.508 L 426.984 236.508 L 426.984 238.508 L 424.984 238.508 L 424.984 236.508 Z M 428.984 236.508 L 430.984 236.508 L 430.984 238.508 L 428.984 238.508 L 428.984 236.508 Z M 430.984 236.508 L 432.984 236.508 L 432.984 238.508 L 430.984 238.508 L 430.984 236.508 Z M 432.984 236.508 L 434.984 236.508 L 434.984 238.508 L 432.984 238.508 L 432.984 236.508 Z M 394.984 238.508 L 396.984 238.508 L 396.984 240.508 L 394.984 240.508 L 394.984 238.508 Z M 406.984 238.508 L 408.984 238.508 L 408.984 240.508 L 406.984 240.508 L 406.984 238.508 Z M 410.984 238.508 L 412.984 238.508 L 412.984 240.508 L 410.984 240.508 L 410.984 238.508 Z M 412.984 238.508 L 414.984 238.508 L 414.984 240.508 L 412.984 240.508 L 412.984 238.508 Z M 416.984 238.508 L 418.984 238.508 L 418.984 240.508 L 416.984 240.508 L 416.984 238.508 Z M 418.984 238.508 L 420.984 238.508 L 420.984 240.508 L 418.984 240.508 L 418.984 238.508 Z M 420.984 238.508 L 422.984 238.508 L 422.984 240.508 L 420.984 240.508 L 420.984 238.508 Z M 422.984 238.508 L 424.984 238.508 L 424.984 240.508 L 422.984 240.508 L 422.984 238.508 Z M 424.984 238.508 L 426.984 238.508 L 426.984 240.508 L 424.984 240.508 L 424.984 238.508 Z M 428.984 238.508 L 430.984 238.508 L 430.984 240.508 L 428.984 240.508 L 428.984 238.508 Z M 394.984 240.508 L 396.984 240.508 L 396.984 242.508 L 394.984 242.508 L 394.984 240.508 Z M 398.984 240.508 L 400.984 240.508 L 400.984 242.508 L 398.984 242.508 L 398.984 240.508 Z M 400.984 240.508 L 402.984 240.508 L 402.984 242.508 L 400.984 242.508 L 400.984 240.508 Z M 402.984 240.508 L 404.984 240.508 L 404.984 242.508 L 402.984 242.508 L 402.984 240.508 Z M 406.984 240.508 L 408.984 240.508 L 408.984 242.508 L 406.984 242.508 L 406.984 240.508 Z M 410.984 240.508 L 412.984 240.508 L 412.984 242.508 L 410.984 242.508 L 410.984 240.508 Z M 418.984 240.508 L 420.984 240.508 L 420.984 242.508 L 418.984 242.508 L 418.984 240.508 Z M 424.984 240.508 L 426.984 240.508 L 426.984 242.508 L 424.984 242.508 L 424.984 240.508 Z M 426.984 240.508 L 428.984 240.508 L 428.984 242.508 L 426.984 242.508 L 426.984 240.508 Z M 428.984 240.508 L 430.984 240.508 L 430.984 242.508 L 428.984 242.508 L 428.984 240.508 Z M 430.984 240.508 L 432.984 240.508 L 432.984 242.508 L 430.984 242.508 L 430.984 240.508 Z M 432.984 240.508 L 434.984 240.508 L 434.984 242.508 L 432.984 242.508 L 432.984 240.508 Z M 394.984 242.508 L 396.984 242.508 L 396.984 244.508 L 394.984 244.508 L 394.984 242.508 Z M 398.984 242.508 L 400.984 242.508 L 400.984 244.508 L 398.984 244.508 L 398.984 242.508 Z M 400.984 242.508 L 402.984 242.508 L 402.984 244.508 L 400.984 244.508 L 400.984 242.508 Z M 402.984 242.508 L 404.984 242.508 L 404.984 244.508 L 402.984 244.508 L 402.984 242.508 Z M 406.984 242.508 L 408.984 242.508 L 408.984 244.508 L 406.984 244.508 L 406.984 242.508 Z M 410.984 242.508 L 412.984 242.508 L 412.984 244.508 L 410.984 244.508 L 410.984 242.508 Z M 418.984 242.508 L 420.984 242.508 L 420.984 244.508 L 418.984 244.508 L 418.984 242.508 Z M 426.984 242.508 L 428.984 242.508 L 428.984 244.508 L 426.984 244.508 L 426.984 242.508 Z M 428.984 242.508 L 430.984 242.508 L 430.984 244.508 L 428.984 244.508 L 428.984 242.508 Z M 394.984 244.508 L 396.984 244.508 L 396.984 246.508 L 394.984 246.508 L 394.984 244.508 Z M 398.984 244.508 L 400.984 244.508 L 400.984 246.508 L 398.984 246.508 L 398.984 244.508 Z M 400.984 244.508 L 402.984 244.508 L 402.984 246.508 L 400.984 246.508 L 400.984 244.508 Z M 402.984 244.508 L 404.984 244.508 L 404.984 246.508 L 402.984 246.508 L 402.984 244.508 Z M 406.984 244.508 L 408.984 244.508 L 408.984 246.508 L 406.984 246.508 L 406.984 244.508 Z M 410.984 244.508 L 412.984 244.508 L 412.984 246.508 L 410.984 246.508 L 410.984 244.508 Z M 412.984 244.508 L 414.984 244.508 L 414.984 246.508 L 412.984 246.508 L 412.984 244.508 Z M 416.984 244.508 L 418.984 244.508 L 418.984 246.508 L 416.984 246.508 L 416.984 244.508 Z M 420.984 244.508 L 422.984 244.508 L 422.984 246.508 L 420.984 246.508 L 420.984 244.508 Z M 394.984 246.508 L 396.984 246.508 L 396.984 248.508 L 394.984 248.508 L 394.984 246.508 Z M 406.984 246.508 L 408.984 246.508 L 408.984 248.508 L 406.984 248.508 L 406.984 246.508 Z M 424.984 246.508 L 426.984 246.508 L 426.984 248.508 L 424.984 248.508 L 424.984 246.508 Z M 426.984 246.508 L 428.984 246.508 L 428.984 248.508 L 426.984 248.508 L 426.984 246.508 Z M 434.984 246.508 L 436.984 246.508 L 436.984 248.508 L 434.984 248.508 L 434.984 246.508 Z M 394.984 248.508 L 396.984 248.508 L 396.984 250.508 L 394.984 250.508 L 394.984 248.508 Z M 396.984 248.508 L 398.984 248.508 L 398.984 250.508 L 396.984 250.508 L 396.984 248.508 Z M 398.984 248.508 L 400.984 248.508 L 400.984 250.508 L 398.984 250.508 L 398.984 248.508 Z M 400.984 248.508 L 402.984 248.508 L 402.984 250.508 L 400.984 250.508 L 400.984 248.508 Z M 402.984 248.508 L 404.984 248.508 L 404.984 250.508 L 402.984 250.508 L 402.984 248.508 Z M 404.984 248.508 L 406.984 248.508 L 406.984 250.508 L 404.984 250.508 L 404.984 248.508 Z M 406.984 248.508 L 408.984 248.508 L 408.984 250.508 L 406.984 250.508 L 406.984 248.508 Z M 410.984 248.508 L 412.984 248.508 L 412.984 250.508 L 410.984 250.508 L 410.984 248.508 Z M 412.984 248.508 L 414.984 248.508 L 414.984 250.508 L 412.984 250.508 L 412.984 248.508 Z M 414.984 248.508 L 416.984 248.508 L 416.984 250.508 L 414.984 250.508 L 414.984 248.508 Z M 416.984 248.508 L 418.984 248.508 L 418.984 250.508 L 416.984 250.508 L 416.984 248.508 Z M 420.984 248.508 L 422.984 248.508 L 422.984 250.508 L 420.984 250.508 L 420.984 248.508 Z" stroke="transparent" fill="black" style="stroke-width: 1;"/>
  </g>
</svg>